<svg width="17" height="17" viewBox="0 0 17 17" fill="none" xmlns="http://www.w3.org/2000/svg">
<path fill-rule="evenodd" clip-rule="evenodd" d="M1.82925 0.292893C1.43873 -0.0976309 0.805566 -0.0976312 0.415042 0.292893L0.292893 0.415042C-0.0976315 0.805566 -0.0976306 1.43873 0.292894 1.82926L6.49941 8.03578L0.292894 14.2423C-0.0976306 14.6328 -0.0976314 15.266 0.292893 15.6565L0.415042 15.7787C0.805566 16.1692 1.43873 16.1692 1.82925 15.7787L8.03578 9.57214L14.2423 15.7787C14.6328 16.1692 15.266 16.1692 15.6565 15.7787L15.7787 15.6565C16.1692 15.266 16.1692 14.6328 15.7787 14.2423L9.57214 8.03578L15.7787 1.82926C16.1692 1.43873 16.1692 0.805566 15.7787 0.415042L15.6565 0.292893C15.266 -0.0976312 14.6328 -0.0976309 14.2423 0.292893L8.03578 6.49941L1.82925 0.292893Z" fill="#FF3E79"/>
</svg>
