<svg width="100" height="53" viewBox="0 0 100 53" fill="none" xmlns="http://www.w3.org/2000/svg">
<path fill-rule="evenodd" clip-rule="evenodd" d="M37.5706 1C37.0183 1 36.5706 1.44772 36.5706 2V6.27495C36.5706 6.82724 37.0183 7.27495 37.5706 7.27495H74.6752C85.0131 7.27495 93.1323 15.0716 93.1323 25.1644C93.1323 25.45 93.3638 25.6815 93.6493 25.6815H99.0427C99.3283 25.6815 99.5598 25.45 99.5598 25.1644C99.5598 11.6752 88.4919 1 74.6752 1H37.5706Z" fill="#6B7B84" stroke="#80949F" stroke-width="0.5"/>
<path fill-rule="evenodd" clip-rule="evenodd" d="M7.51368 26.1199C7.51368 25.8779 7.31745 25.6816 7.07539 25.6816H1.43829C1.19623 25.6816 1 25.8779 1 26.1199C1 39.7693 11.4362 51.0388 24.9311 51.7763L68.1757 51.8141C68.7283 51.8146 69.1765 51.3667 69.1765 50.8141V46.2345C69.1765 45.6822 68.7288 45.2345 68.1765 45.2345H26.4192C15.9697 45.2061 7.51368 36.6908 7.51368 26.1199Z" fill="#6B7B84" stroke="#80949F" stroke-width="0.5"/>
<path fill-rule="evenodd" clip-rule="evenodd" d="M28.9866 40.2001C31.7824 40.2001 34.1113 39.668 36.4115 38.5732L36.5703 38.4277V30.5932L35.7096 31.6726C34.0533 33.4455 31.829 34.4214 29.3125 34.4214C24.6252 34.4214 19.9175 31.4536 19.9175 25.7815C19.9175 21.4952 23.1643 16.9397 29.1477 16.9397C30.3415 16.9397 33.245 17.2162 35.7054 19.7757L36.5703 20.8194V13.0205L36.4185 12.873C34.0747 11.7224 31.6844 11.1631 28.9582 11.1631C24.296 11.1631 20.6571 12.3654 17.7598 14.8367C15.9219 16.3854 12.8567 19.8562 12.8567 25.7C12.8567 30.0208 14.4273 33.3952 17.7833 36.3221C20.9053 39.0039 24.3671 40.2001 28.9866 40.2001Z" fill="#6B7B84"/>
<path d="M28.9866 40.2001C31.7824 40.2001 34.1113 39.668 36.4115 38.5732L36.5703 38.4277V30.5932L35.7096 31.6726C34.0533 33.4455 31.829 34.4214 29.3125 34.4214C24.6252 34.4214 19.9175 31.4536 19.9175 25.7815C19.9175 21.4952 23.1643 16.9397 29.1477 16.9397C30.3415 16.9397 33.245 17.2162 35.7054 19.7757L36.5703 20.8194V13.0205L36.4185 12.873C34.0747 11.7224 31.6844 11.1631 28.9582 11.1631C24.296 11.1631 20.6571 12.3654 17.7598 14.8367C15.9219 16.3854 12.8567 19.8562 12.8567 25.7C12.8567 30.0208 14.4273 33.3952 17.7833 36.3221C20.9053 39.0039 24.3671 40.2001 28.9866 40.2001" stroke="#80949F" stroke-width="0.5"/>
<path fill-rule="evenodd" clip-rule="evenodd" d="M49.1684 17.6965H50.5611C51.8387 17.6965 53.2948 17.7648 54.3968 18.5007C54.9349 18.8772 55.8378 19.749 55.8378 21.3323C55.8378 22.5023 55.31 23.5514 54.4382 24.2061C53.3203 25.0009 51.9917 24.9553 50.924 24.9553H49.1684V17.6965ZM52.2978 30.2256C55.5965 30.2256 58.1786 29.2935 59.9717 27.5375C62.1774 25.3813 62.5071 22.415 62.5071 20.8513C62.5071 19.178 62.1022 15.9143 59.3867 13.5512C57.1608 11.6405 54.7858 11.1631 51.4357 11.1631H42.4988V40.2001H49.2961V30.2256H52.2978Z" fill="#6B7B84"/>
<path d="M49.1684 17.6965V17.4465H48.9184V17.6965H49.1684ZM54.3968 18.5007L54.5402 18.2958L54.5356 18.2928L54.3968 18.5007ZM54.4382 24.2061L54.5831 24.4099L54.5883 24.406L54.4382 24.2061ZM49.1684 24.9553H48.9184V25.2053H49.1684V24.9553ZM59.9717 27.5375L59.797 27.3588L59.7968 27.3589L59.9717 27.5375ZM59.3867 13.5512L59.5508 13.3626L59.5495 13.3615L59.3867 13.5512ZM42.4988 11.1631V10.9131H42.2488V11.1631H42.4988ZM42.4988 40.2001H42.2488V40.4501H42.4988V40.2001ZM49.2961 40.2001V40.4501H49.5461V40.2001H49.2961ZM49.2961 30.2256V29.9756H49.0461V30.2256H49.2961ZM49.1684 17.9465H50.5611V17.4465H49.1684V17.9465ZM50.5611 17.9465C51.8446 17.9465 53.2267 18.02 54.258 18.7086L54.5356 18.2928C53.3628 17.5097 51.8327 17.4465 50.5611 17.4465V17.9465ZM54.2535 18.7055C54.7527 19.0548 55.5878 19.8596 55.5878 21.3323H56.0878C56.0878 19.6383 55.1171 18.6996 54.5401 18.2958L54.2535 18.7055ZM55.5878 21.3323C55.5878 22.4262 55.095 23.4002 54.2881 24.0062L54.5883 24.406C55.525 23.7026 56.0878 22.5784 56.0878 21.3323H55.5878ZM54.2933 24.0023C53.2525 24.7424 52.012 24.7053 50.924 24.7053V25.2053C51.9713 25.2053 53.3882 25.2594 54.583 24.4098L54.2933 24.0023ZM50.924 24.7053H49.1684V25.2053H50.924V24.7053ZM49.4184 24.9553V17.6965H48.9184V24.9553H49.4184ZM52.2978 30.4756C55.6436 30.4756 58.2951 29.5293 60.1466 27.7162L59.7968 27.3589C58.062 29.0577 55.5495 29.9756 52.2978 29.9756V30.4756ZM60.1465 27.7163C62.425 25.4889 62.7571 22.4375 62.7571 20.8513H62.2571C62.2571 22.3926 61.9299 25.2736 59.797 27.3588L60.1465 27.7163ZM62.7571 20.8513C62.7571 19.1486 62.3466 15.7955 59.5508 13.3626L59.2226 13.7398C61.8579 16.0331 62.2571 19.2074 62.2571 20.8513H62.7571ZM59.5495 13.3615C57.2583 11.3947 54.8124 10.9131 51.4357 10.9131V11.4131C54.7593 11.4131 57.0634 11.8864 59.2239 13.7409L59.5495 13.3615ZM51.4357 10.9131H42.4988V11.4131H51.4357V10.9131ZM42.2488 11.1631V40.2001H42.7488V11.1631H42.2488ZM42.4988 40.4501H49.2961V39.9501H42.4988V40.4501ZM49.5461 40.2001V30.2256H49.0461V40.2001H49.5461ZM49.2961 30.4756H52.2978V29.9756H49.2961V30.4756Z" fill="#80949F"/>
<path fill-rule="evenodd" clip-rule="evenodd" d="M82.8985 24.8764C81.4207 23.5938 79.3578 22.8502 77.0165 22.079C75.3483 21.5104 74.4291 21.1971 73.8164 20.6498C73.3327 20.2476 73.1171 19.811 73.1171 19.2339C73.1171 17.9699 73.9939 16.619 76.4554 16.619C78.1282 16.619 79.5289 17.3197 80.6186 18.7008L81.0513 19.2491L84.6408 14.7733L84.3135 14.4522C82.1182 12.3002 79.2254 11.1631 75.9476 11.1631C69.3343 11.1631 66.374 15.3776 66.374 19.5546C66.374 21.796 67.19 23.6037 68.7943 24.9252C70.2306 26.1311 71.9822 26.8068 73.6624 27.3584L73.8523 27.4201C75.3443 27.9032 76.8874 28.4031 77.809 29.2111C78.4502 29.7882 78.7359 30.4154 78.7359 31.2444C78.7359 33.1445 77.2084 34.4214 74.935 34.4214C73.1379 34.4214 70.7715 33.5585 69.5196 31.1374L69.1921 30.503L64.7305 34.5488L64.9936 34.9134C66.4171 36.8878 69.6292 40.2001 75.1466 40.2001C81.2305 40.2001 85.4798 36.3686 85.4798 30.8828C85.4798 27.7451 84.0746 25.8829 82.8985 24.8764Z" fill="#6B7B84"/>
<path d="M82.8985 24.8764C81.4207 23.5938 79.3578 22.8502 77.0165 22.079C75.3483 21.5104 74.4291 21.1971 73.8164 20.6498C73.3327 20.2476 73.1171 19.811 73.1171 19.2339C73.1171 17.9699 73.9939 16.619 76.4554 16.619C78.1282 16.619 79.5289 17.3197 80.6186 18.7008L81.0513 19.2491L84.6408 14.7733L84.3135 14.4522C82.1182 12.3002 79.2254 11.1631 75.9476 11.1631C69.3343 11.1631 66.374 15.3776 66.374 19.5546C66.374 21.796 67.19 23.6037 68.7943 24.9252C70.2306 26.1311 71.9822 26.8068 73.6624 27.3584L73.8523 27.4201C75.3443 27.9032 76.8874 28.4031 77.809 29.2111C78.4502 29.7882 78.7359 30.4154 78.7359 31.2444C78.7359 33.1445 77.2084 34.4214 74.935 34.4214C73.1379 34.4214 70.7715 33.5585 69.5196 31.1374L69.1921 30.503L64.7305 34.5488L64.9936 34.9134C66.4171 36.8878 69.6292 40.2001 75.1466 40.2001C81.2305 40.2001 85.4798 36.3686 85.4798 30.8828C85.4798 27.7451 84.0746 25.8829 82.8985 24.8764" stroke="#80949F" stroke-width="0.5"/>
</svg>
